<svg width="160" height="175" viewBox="0 0 160 175" fill="none" xmlns="http://www.w3.org/2000/svg">
<g clip-path="url(#clip0_103_237)">
<path d="M142.94 174.15H17.6602V68.17L80.2902 28.4L142.94 68.17V174.15Z" fill="#FFC727"/>
<path opacity="0.2" d="M142.94 174.15H17.6602V68.17L80.2902 28.4L142.94 68.17V174.15Z" fill="black"/>
<path d="M135.88 23.36H24.7305V166.05H135.88V23.36Z" fill="#EBEBEB"/>
<path d="M73.5306 108.73L48.0806 82.96L56.6306 74.52L71.5006 89.57L102.391 41.15L112.521 47.61L73.5306 108.73Z" fill="#FFC727"/>
<path d="M142.94 94.7V174.15H17.6602V94.7C23.0402 97.75 28.3302 100.95 33.6502 104.07C38.9602 107.25 44.2602 110.43 49.5302 113.67C55.4002 117.24 61.2702 120.88 67.1202 124.54C67.1802 124.5 67.2502 124.46 67.3102 124.43C67.2502 124.47 67.2202 124.52 67.1602 124.56C71.5402 127.29 75.9302 130.03 80.3102 132.78C84.6702 130.03 89.0602 127.27 93.4402 124.56C93.3802 124.52 93.3502 124.47 93.2902 124.43C93.3502 124.47 93.4202 124.51 93.4802 124.52C99.3302 120.87 105.18 117.24 111.07 113.65C116.34 110.43 121.62 107.23 126.93 104.07C132.28 100.94 137.56 97.75 142.94 94.7Z" fill="#FFC727"/>
<g opacity="0.2">
<path d="M142.94 94.7C137.88 98.26 132.72 101.66 127.63 105.16C122.49 108.58 117.34 112.01 112.16 115.39C106.76 118.93 101.34 122.43 95.9204 125.91C95.7504 126.02 95.6004 126.14 95.4304 126.25C90.6304 129.32 85.8204 132.38 81.0004 135.45L80.2904 135.88L79.5904 135.45C74.7704 132.38 69.9804 129.32 65.1804 126.23C65.0104 126.14 64.8404 126.02 64.6704 125.91C59.2304 122.43 53.8104 118.93 48.4104 115.37C43.2504 112 38.1004 108.58 32.9604 105.15C27.8604 101.65 22.7104 98.25 17.6504 94.69C23.0304 97.74 28.3204 100.94 33.6404 104.06C38.9504 107.24 44.2504 110.42 49.5204 113.66C55.3904 117.23 61.2604 120.87 67.1104 124.53C67.1304 124.53 67.1304 124.53 67.1504 124.55C71.5304 127.28 75.9204 130.02 80.3004 132.77C84.6604 130.02 89.0504 127.26 93.4304 124.55C93.4504 124.51 93.4504 124.51 93.4704 124.51C99.3204 120.86 105.17 117.23 111.06 113.64C116.33 110.42 121.61 107.22 126.92 104.06C132.28 100.94 137.56 97.75 142.94 94.7Z" fill="black"/>
<path d="M67.3104 124.43C67.2504 124.47 67.2205 124.52 67.1605 124.56C66.5005 125.12 65.8405 125.69 65.1805 126.23C62.0405 128.88 58.8204 131.42 55.5504 133.89C51.5604 136.94 47.4805 139.85 43.3805 142.75C39.2605 145.59 35.1204 148.41 30.8904 151.12C26.6604 153.83 22.3904 156.48 17.9604 158.91C21.7604 155.58 25.7105 152.48 29.7005 149.45C33.7105 146.4 37.7904 143.49 41.8704 140.59C46.0104 137.73 50.1505 134.91 54.3805 132.2C57.7505 130.04 61.1704 127.91 64.6704 125.92C65.4804 125.45 66.2905 125 67.1205 124.55C67.1805 124.5 67.2504 124.46 67.3104 124.43Z" fill="black"/>
<path d="M142.641 158.91C138.221 156.48 133.931 153.83 129.711 151.12C125.481 148.41 121.341 145.59 117.201 142.75C113.101 139.85 109.021 136.94 105.031 133.89C101.781 131.43 98.5605 128.9 95.4305 126.25C94.7505 125.69 94.0905 125.12 93.4405 124.56C93.3805 124.52 93.3505 124.47 93.2905 124.43C93.3505 124.47 93.4205 124.51 93.4805 124.52C94.3105 124.99 95.1205 125.44 95.9305 125.91C99.4305 127.9 102.831 130.03 106.221 132.19C110.451 134.9 114.591 137.72 118.711 140.58C122.811 143.48 126.891 146.39 130.881 149.44C134.891 152.48 138.841 155.58 142.641 158.91Z" fill="black"/>
</g>
<path d="M26.7004 16.55C26.3004 13.79 26.2104 11.03 26.1904 8.27001C26.2004 5.51001 26.2904 2.75001 26.6804 -0.00999451C27.0804 2.75001 27.1704 5.51001 27.1904 8.27001C27.1804 11.03 27.0904 13.79 26.7004 16.55Z" fill="#263238"/>
<path d="M19.6704 19.18C17.4404 17.51 15.4204 15.62 13.4604 13.69C11.5204 11.73 9.63045 9.72001 7.96045 7.49001C10.1904 9.16001 12.2104 11.04 14.1704 12.98C16.1004 14.94 17.9904 16.95 19.6704 19.18Z" fill="#263238"/>
<path d="M16.5502 26.01C13.7902 26.41 11.0302 26.5 8.27024 26.52C5.51023 26.51 2.75023 26.42 -0.00976562 26.03C2.75023 25.63 5.51023 25.54 8.27024 25.52C11.0302 25.53 13.7902 25.62 16.5502 26.01Z" fill="#263238"/>
<path d="M19.1802 33.04C17.5102 35.27 15.6202 37.29 13.6902 39.25C11.7302 41.19 9.72023 43.08 7.49023 44.75C9.16023 42.52 11.0402 40.5 12.9802 38.54C14.9402 36.61 16.9502 34.72 19.1802 33.04Z" fill="#263238"/>
<path d="M133.16 16.55C132.77 13.79 132.68 11.03 132.67 8.27001C132.69 5.51001 132.78 2.75001 133.18 -0.00999451C133.57 2.75001 133.66 5.51001 133.67 8.27001C133.64 11.04 133.55 13.79 133.16 16.55Z" fill="#263238"/>
<path d="M140.19 19.18C141.86 16.95 143.75 14.94 145.69 12.98C147.65 11.04 149.67 9.16001 151.9 7.49001C150.23 9.72001 148.34 11.73 146.4 13.69C144.44 15.62 142.42 17.51 140.19 19.18Z" fill="#263238"/>
<path d="M143.3 26.01C146.06 25.62 148.82 25.53 151.58 25.52C154.34 25.54 157.1 25.63 159.86 26.03C157.1 26.42 154.34 26.51 151.58 26.52C148.82 26.5 146.06 26.41 143.3 26.01Z" fill="#263238"/>
<path d="M140.68 33.04C142.91 34.71 144.92 36.6 146.88 38.54C148.82 40.5 150.7 42.52 152.37 44.75C150.14 43.08 148.13 41.19 146.17 39.25C144.23 37.29 142.35 35.27 140.68 33.04Z" fill="#263238"/>
</g>
<defs>
<clipPath id="clip0_103_237">
<rect width="159.86" height="174.15" fill="white"/>
</clipPath>
</defs>
</svg>